<?xml version="1.0" encoding="utf-8"?>
<!-- Generator: Adobe Illustrator 18.1.1, SVG Export Plug-In . SVG Version: 6.00 Build 0)  -->
<svg version="1.1" id="Layer_1" xmlns="http://www.w3.org/2000/svg" xmlns:xlink="http://www.w3.org/1999/xlink" x="0px" y="0px"
	 viewBox="0 0 173 37" enable-background="new 0 0 173 37" xml:space="preserve">
<g>
	<path fill="#FFFFFF" d="M13.3,36.6h-2.1L0,11.3h2.8l9.5,22.4l9.6-22.4h2.7L13.3,36.6z"/>
	<path fill="#FFFFFF" d="M36.9,34.7c3.9,0,6.5-1.7,8.6-3.9l1.7,1.5C44.6,35,41.6,37,36.8,37c-6.6,0-12.3-5.3-12.3-13.1v-0.1
		c0-7.3,5.1-13.1,11.9-13.1c7,0,11.5,5.7,11.5,13.1V24c0,0.3,0,0.5,0,0.9H27.1C27.5,31.1,32,34.7,36.9,34.7z M45.3,22.7
		c-0.3-5.1-3.2-9.7-9-9.7c-5,0-8.8,4.2-9.2,9.7H45.3z"/>
	<path fill="#FFFFFF" d="M65.2,13.6c-5.8,0-10.9,4.4-10.9,12.5v10.3h-2.4V11.3h2.4v7.1c2-4.5,6.1-7.7,11.1-7.5v2.7H65.2z"/>
	<path fill="#FFFFFF" d="M120.7,36.4v-5.6c-2.2,3.3-5.4,6.2-10.3,6.2c-6,0-12.2-4.9-12.2-13v-0.1c0-8.2,6.1-13.1,12.2-13.1
		c5,0,8.3,2.9,10.3,6V0.5h2.4v35.9H120.7z M120.8,23.8c0-6.4-5-10.8-10.2-10.8c-5.5,0-9.8,4-9.8,10.7v0.1c0,6.6,4.6,10.8,9.8,10.8
		C115.8,34.7,120.8,30.3,120.8,23.8L120.8,23.8z"/>
	<path fill="#FFFFFF" d="M139.7,34.7c3.9,0,6.5-1.7,8.6-3.9l1.7,1.5c-2.6,2.8-5.6,4.7-10.4,4.7c-6.6,0-12.3-5.3-12.3-13.1v-0.1
		c0-7.3,5.1-13.1,11.9-13.1c7,0,11.5,5.7,11.5,13.1V24c0,0.3,0,0.5,0,0.9h-20.8C130.4,31.1,134.8,34.7,139.7,34.7z M148.2,22.7
		c-0.3-5.1-3.2-9.7-9-9.7c-5,0-8.8,4.2-9.2,9.7H148.2z"/>
	<path fill="#FFFFFF" d="M164.3,36.9c-3.6,0-7.6-1.5-10.3-3.6l1.4-1.9c2.8,2.1,5.8,3.3,9,3.3c3.4,0,6-1.9,6-4.8v-0.1
		c0-3-3.1-4-6.6-5c-4.1-1.2-8.6-2.4-8.6-6.9v-0.1c0-4,3.4-6.9,8.3-6.9c3,0,6.4,1.1,8.9,2.8l-1.3,2c-2.3-1.5-5.1-2.5-7.7-2.5
		c-3.4,0-5.7,1.9-5.7,4.4v0.1c0,2.8,3.4,3.8,7,4.9c4,1.1,8.3,2.6,8.3,7v0.1C173,34.1,169.1,36.9,164.3,36.9z"/>
	<polygon fill="#FFFFFF" points="83.3,18.5 71.9,18.5 71.9,4.4 86.4,4.4 86.9,2 69.4,2 69.4,36.4 71.9,36.4 71.9,20.8 82.7,20.8 	
		"/>
	<g>
		<path fill="#FFFFFF" d="M91.3,36.4V11.3h2.4v25.1H91.3z"/>
		<rect x="91.3" y="1.5" fill="#FFFFFF" width="2.4" height="3.3"/>
	</g>
</g>
</svg>
